<?xml version="1.0" encoding="utf-8"?>
<!-- Generator: Adobe Illustrator 24.2.1, SVG Export Plug-In . SVG Version: 6.00 Build 0)  -->
<svg version="1.1" id="_x38_13c2686-e70f-4fb0-bf6b-a2eb7b1db384"
	 xmlns="http://www.w3.org/2000/svg" xmlns:xlink="http://www.w3.org/1999/xlink" x="0px" y="0px" viewBox="0 0 1121.04 851.8"
	 style="enable-background:new 0 0 1121.04 851.8;" xml:space="preserve">
<style type="text/css">
	
		.st0{opacity:0.3;fill:none;stroke:#000000;stroke-width:0.75;stroke-miterlimit:10;stroke-dasharray:12;enable-background:new    ;}
	.st1{opacity:0.5;fill:#1BB1DC;enable-background:new    ;}
	.st2{opacity:0.5;fill:#F15F22;enable-background:new    ;}
	.st3{opacity:0.5;fill:#267838;enable-background:new    ;}
</style>
<path class="st0" d="M565.04,394.59c8.29-0.89,17.16-0.64,24.27,3.73c7.53,4.63,11.88,13.27,13.34,22
	c1.46,8.73,0.44,17.65-0.6,26.43l-5.6,47.36c-0.79,6.63-1.55,13.53,0.6,19.86s8.1,11.89,14.75,11.3"/>
<path class="st0" d="M322.09,489.6c21.35,0.53,45.42,0,60.17-15.44c11.2-11.72,13.83-28.89,17.6-44.66
	c6.81-28.47,19.19-55.87,38-78.32s44.2-39.75,72.62-46.73c22.84-5.62,46.86-4.56,69.82-9.61s46.54-18.66,52.89-41.3"/>
<path class="st1" d="M680,203.95l-57.61,21c-0.58,0.22-0.88,0.87-0.65,1.46c0.08,0.22,0.24,0.41,0.43,0.54l8.6,4.77
	c0.49,0.29,0.85,0.75,1,1.3l4.93,15.6c0,0.66,1.2,1,1.31,0.36l0.69-12.2c0.2-0.88,0.66-1.68,1.33-2.29l31.66-23
	c0.19-0.12,0.42-0.15,0.63-0.08c0.33,0.13,0.49,0.5,0.36,0.83c-0.03,0.09-0.09,0.16-0.16,0.23l-28.15,25.67
	c-0.61,0.64-1.05,1.41-1.29,2.26l-3,10.19c0,0.92,0.64,1.37,1.34,0.64l6-5.27c0.42-0.43,1.11-0.43,1.54-0.01
	c0,0,0.01,0.01,0.01,0.01l11.82,11.6c0.42,0.42,1.11,0.42,1.53-0.01c0.11-0.11,0.2-0.25,0.25-0.4l18.71-51.72
	c0.22-0.56-0.05-1.19-0.61-1.42c-0.25-0.1-0.52-0.1-0.77-0.01L680,203.95z"/>
<path class="st0" d="M712.89,454.33c21.35,0.53,45.42,0,60.17-15.44c11.2-11.72,13.83-28.89,17.6-44.66
	c6.81-28.47,19.19-55.87,38-78.32s44.2-39.75,72.62-46.73c22.84-5.62,46.86-4.56,69.82-9.61s46.54-18.66,52.89-41.3"/>
<path class="st2" d="M1067.99,175.44l-57.61,21c-0.58,0.22-0.88,0.87-0.65,1.46c0.08,0.22,0.24,0.41,0.43,0.54l8.6,4.77
	c0.49,0.29,0.85,0.75,1,1.3l4.93,15.6c0,0.66,1.2,1,1.31,0.36l0.69-12.2c0.2-0.88,0.66-1.68,1.33-2.29l31.66-23
	c0.19-0.12,0.42-0.15,0.63-0.08c0.33,0.13,0.49,0.5,0.36,0.83c-0.03,0.09-0.09,0.16-0.16,0.23l-28.15,25.67
	c-0.61,0.64-1.05,1.41-1.29,2.26l-3,10.19c0,0.92,0.64,1.37,1.34,0.64l6-5.27c0.42-0.43,1.11-0.43,1.54-0.01
	c0,0,0.01,0.01,0.01,0.01l11.82,11.6c0.42,0.42,1.11,0.42,1.53-0.01c0.11-0.11,0.2-0.25,0.25-0.4l18.71-51.72
	c0.22-0.56-0.05-1.19-0.61-1.42c-0.25-0.1-0.52-0.1-0.77-0.01L1067.99,175.44z"/>
<path class="st3" d="M548.77,367.6l11.55,36.31c0.12,0.37,0.53,0.57,0.9,0.45c0.14-0.05,0.27-0.13,0.36-0.25l3.28-5.17
	c0.2-0.29,0.5-0.5,0.85-0.58l10.03-2.57c0.42,0.02,0.67-0.71,0.27-0.8l-7.71-0.81c-0.55-0.15-1.04-0.46-1.41-0.89l-13.61-20.31
	c-0.07-0.12-0.08-0.26-0.03-0.39c0.09-0.2,0.33-0.29,0.54-0.19c0.05,0.02,0.1,0.06,0.14,0.1l15.4,18.22
	c0.38,0.4,0.86,0.69,1.39,0.87l6.36,2.17c0.58,0.03,0.89-0.35,0.45-0.81l-3.16-3.88c-0.26-0.28-0.24-0.7,0.04-0.95
	c0,0,0,0,0.01-0.01l7.71-6.95c0.28-0.25,0.3-0.67,0.04-0.95c-0.07-0.07-0.15-0.13-0.25-0.17l-32.19-13.19
	c-0.35-0.16-0.76-0.01-0.92,0.33c-0.07,0.15-0.08,0.32-0.03,0.48L548.77,367.6z"/>
</svg>
